STARTFONT 2.1
FONT -FontForge-Jersey 20-Book-R-Normal--12-120-75-75-P-48-ISO10646-1
SIZE 12 75 75
FONTBOUNDINGBOX 14 14 -2 -3
COMMENT "Generated by fontforge, http://fontforge.sourceforge.net"
COMMENT "Copyright 2023 The Soft Type Project Authors (https://github.com/scfried/soft-type-jersey)"
STARTPROPERTIES 39
FOUNDRY "FontForge"
FAMILY_NAME "Jersey 20"
WEIGHT_NAME "Book"
SLANT "R"
SETWIDTH_NAME "Normal"
ADD_STYLE_NAME ""
PIXEL_SIZE 12
POINT_SIZE 120
RESOLUTION_X 75
RESOLUTION_Y 75
SPACING "P"
AVERAGE_WIDTH 48
CHARSET_REGISTRY "ISO10646"
CHARSET_ENCODING "1"
FONTNAME_REGISTRY ""
CHARSET_COLLECTIONS "ISO8859-2 ISO8859-9 ISO8859-4 ISO10646-1"
FONT_NAME "Jersey20-Regular"
FACE_NAME "Jersey 20 Regular"
COPYRIGHT "Copyright 2023 The Soft Type Project Authors (https://github.com/scfried/soft-type-jersey)"
FONT_VERSION "1.001; ttfautohint (v1.8.4.7-5d5b)"
FONT_ASCENT 10
FONT_DESCENT 2
UNDERLINE_POSITION -1
UNDERLINE_THICKNESS 1
X_HEIGHT 5
CAP_HEIGHT 7
RAW_ASCENT 794
RAW_DESCENT 205
NORM_SPACE 2
RELATIVE_WEIGHT 40
RELATIVE_SETWIDTH 50
SUPERSCRIPT_X 0
SUPERSCRIPT_Y 4
SUPERSCRIPT_SIZE 7
SUBSCRIPT_X 0
SUBSCRIPT_Y 0
SUBSCRIPT_SIZE 7
AVG_LOWERCASE_WIDTH 53
AVG_UPPERCASE_WIDTH 56
ENDPROPERTIES
CHARS 359
STARTCHAR space
ENCODING 32
SWIDTH 205 0
DWIDTH 2 0
BBX 1 1 0 0
BITMAP
00
ENDCHAR
STARTCHAR exclam
ENCODING 33
SWIDTH 205 0
DWIDTH 2 0
BBX 2 8 0 0
BITMAP
C0
C0
C0
C0
40
40
00
C0
ENDCHAR
STARTCHAR quotedbl
ENCODING 34
SWIDTH 352 0
DWIDTH 4 0
BBX 4 2 0 6
BITMAP
F0
60
ENDCHAR
STARTCHAR numbersign
ENCODING 35
SWIDTH 647 0
DWIDTH 8 0
BBX 7 8 0 0
BITMAP
36
36
7E
24
6C
FC
48
48
ENDCHAR
STARTCHAR dollar
ENCODING 36
SWIDTH 500 0
DWIDTH 6 0
BBX 5 9 0 -1
BITMAP
78
F8
A0
70
78
28
F8
78
20
ENDCHAR
STARTCHAR percent
ENCODING 37
SWIDTH 647 0
DWIDTH 8 0
BBX 7 8 0 0
BITMAP
64
F8
68
50
14
2A
2A
2E
ENDCHAR
STARTCHAR ampersand
ENCODING 38
SWIDTH 617 0
DWIDTH 7 0
BBX 7 8 0 0
BITMAP
30
58
58
74
7C
DC
FC
76
ENDCHAR
STARTCHAR quotesingle
ENCODING 39
SWIDTH 205 0
DWIDTH 2 0
BBX 2 2 0 6
BITMAP
C0
40
ENDCHAR
STARTCHAR parenleft
ENCODING 40
SWIDTH 294 0
DWIDTH 4 0
BBX 3 10 0 -2
BITMAP
60
40
C0
C0
C0
C0
C0
C0
40
60
ENDCHAR
STARTCHAR parenright
ENCODING 41
SWIDTH 294 0
DWIDTH 4 0
BBX 3 10 0 -2
BITMAP
C0
40
60
60
60
60
60
60
40
C0
ENDCHAR
STARTCHAR asterisk
ENCODING 42
SWIDTH 382 0
DWIDTH 5 0
BBX 4 3 0 5
BITMAP
B0
60
70
ENDCHAR
STARTCHAR plus
ENCODING 43
SWIDTH 470 0
DWIDTH 6 0
BBX 5 5 0 1
BITMAP
20
20
F8
20
20
ENDCHAR
STARTCHAR comma
ENCODING 44
SWIDTH 205 0
DWIDTH 2 0
BBX 2 2 0 -1
BITMAP
C0
80
ENDCHAR
STARTCHAR hyphen
ENCODING 45
SWIDTH 441 0
DWIDTH 5 0
BBX 5 1 0 4
BITMAP
F8
ENDCHAR
STARTCHAR period
ENCODING 46
SWIDTH 205 0
DWIDTH 2 0
BBX 2 1 0 0
BITMAP
C0
ENDCHAR
STARTCHAR slash
ENCODING 47
SWIDTH 382 0
DWIDTH 5 0
BBX 4 10 0 -2
BITMAP
30
30
30
20
60
60
40
40
C0
C0
ENDCHAR
STARTCHAR zero
ENCODING 48
SWIDTH 441 0
DWIDTH 5 0
BBX 5 8 0 0
BITMAP
70
F8
D8
D8
D8
D8
F8
70
ENDCHAR
STARTCHAR one
ENCODING 49
SWIDTH 294 0
DWIDTH 4 0
BBX 3 8 0 0
BITMAP
E0
60
60
60
60
60
60
60
ENDCHAR
STARTCHAR two
ENCODING 50
SWIDTH 470 0
DWIDTH 6 0
BBX 5 8 0 0
BITMAP
70
F8
08
18
30
60
F8
F8
ENDCHAR
STARTCHAR three
ENCODING 51
SWIDTH 470 0
DWIDTH 6 0
BBX 5 8 0 0
BITMAP
70
F8
08
38
18
08
F8
78
ENDCHAR
STARTCHAR four
ENCODING 52
SWIDTH 441 0
DWIDTH 5 0
BBX 5 8 0 0
BITMAP
18
38
78
D8
D8
F8
F8
18
ENDCHAR
STARTCHAR five
ENCODING 53
SWIDTH 470 0
DWIDTH 6 0
BBX 5 8 0 0
BITMAP
F8
F8
C0
F8
F8
08
F8
70
ENDCHAR
STARTCHAR six
ENCODING 54
SWIDTH 470 0
DWIDTH 6 0
BBX 5 8 0 0
BITMAP
78
F8
C0
F8
F8
C8
F8
70
ENDCHAR
STARTCHAR seven
ENCODING 55
SWIDTH 441 0
DWIDTH 5 0
BBX 5 8 0 0
BITMAP
F8
18
18
18
30
30
20
20
ENDCHAR
STARTCHAR eight
ENCODING 56
SWIDTH 470 0
DWIDTH 6 0
BBX 5 8 0 0
BITMAP
70
F8
C8
78
58
C8
F8
78
ENDCHAR
STARTCHAR nine
ENCODING 57
SWIDTH 470 0
DWIDTH 6 0
BBX 5 8 0 0
BITMAP
70
F8
C8
F8
78
08
F8
78
ENDCHAR
STARTCHAR colon
ENCODING 58
SWIDTH 205 0
DWIDTH 2 0
BBX 2 6 0 0
BITMAP
C0
00
00
00
00
C0
ENDCHAR
STARTCHAR semicolon
ENCODING 59
SWIDTH 205 0
DWIDTH 2 0
BBX 2 7 0 -1
BITMAP
C0
00
00
00
00
C0
80
ENDCHAR
STARTCHAR less
ENCODING 60
SWIDTH 441 0
DWIDTH 5 0
BBX 5 5 0 2
BITMAP
08
30
C0
60
18
ENDCHAR
STARTCHAR equal
ENCODING 61
SWIDTH 470 0
DWIDTH 6 0
BBX 5 3 0 2
BITMAP
F8
00
F8
ENDCHAR
STARTCHAR greater
ENCODING 62
SWIDTH 441 0
DWIDTH 5 0
BBX 5 5 0 2
BITMAP
80
60
38
30
C0
ENDCHAR
STARTCHAR question
ENCODING 63
SWIDTH 441 0
DWIDTH 5 0
BBX 5 8 0 0
BITMAP
70
D8
18
10
30
20
00
20
ENDCHAR
STARTCHAR at
ENCODING 64
SWIDTH 705 0
DWIDTH 8 0
BBX 8 8 0 0
BITMAP
7E
42
9D
A5
A5
BF
40
7E
ENDCHAR
STARTCHAR A
ENCODING 65
SWIDTH 470 0
DWIDTH 6 0
BBX 5 8 0 0
BITMAP
20
70
D8
C8
C8
F8
C8
C8
ENDCHAR
STARTCHAR B
ENCODING 66
SWIDTH 470 0
DWIDTH 6 0
BBX 5 8 0 0
BITMAP
F0
F8
C8
F8
F8
C8
F8
F8
ENDCHAR
STARTCHAR C
ENCODING 67
SWIDTH 470 0
DWIDTH 6 0
BBX 5 8 0 0
BITMAP
70
F8
C8
C0
C0
C8
F8
78
ENDCHAR
STARTCHAR D
ENCODING 68
SWIDTH 470 0
DWIDTH 6 0
BBX 5 8 0 0
BITMAP
F0
F8
C8
C8
C8
C8
F8
F8
ENDCHAR
STARTCHAR E
ENCODING 69
SWIDTH 441 0
DWIDTH 5 0
BBX 5 8 0 0
BITMAP
F8
C0
C0
F0
C0
C0
C0
F8
ENDCHAR
STARTCHAR F
ENCODING 70
SWIDTH 411 0
DWIDTH 5 0
BBX 5 8 0 0
BITMAP
F8
C0
C0
F0
C0
C0
C0
C0
ENDCHAR
STARTCHAR G
ENCODING 71
SWIDTH 470 0
DWIDTH 6 0
BBX 5 8 0 0
BITMAP
70
F8
C8
F8
F8
C8
F8
78
ENDCHAR
STARTCHAR H
ENCODING 72
SWIDTH 470 0
DWIDTH 6 0
BBX 5 8 0 0
BITMAP
C8
C8
C8
F8
C8
C8
C8
C8
ENDCHAR
STARTCHAR I
ENCODING 73
SWIDTH 205 0
DWIDTH 2 0
BBX 2 8 0 0
BITMAP
C0
C0
C0
C0
C0
C0
C0
C0
ENDCHAR
STARTCHAR J
ENCODING 74
SWIDTH 441 0
DWIDTH 5 0
BBX 5 8 0 0
BITMAP
18
18
18
18
18
18
F8
70
ENDCHAR
STARTCHAR K
ENCODING 75
SWIDTH 441 0
DWIDTH 5 0
BBX 5 8 0 0
BITMAP
D8
D8
D8
F0
F0
D8
D8
D8
ENDCHAR
STARTCHAR L
ENCODING 76
SWIDTH 382 0
DWIDTH 5 0
BBX 4 8 0 0
BITMAP
C0
C0
C0
C0
C0
C0
F0
F0
ENDCHAR
STARTCHAR M
ENCODING 77
SWIDTH 647 0
DWIDTH 8 0
BBX 7 8 0 0
BITMAP
C2
E6
FE
DA
D2
C2
C2
C2
ENDCHAR
STARTCHAR N
ENCODING 78
SWIDTH 529 0
DWIDTH 6 0
BBX 6 8 0 0
BITMAP
CC
EC
EC
FC
FC
DC
DC
CC
ENDCHAR
STARTCHAR O
ENCODING 79
SWIDTH 470 0
DWIDTH 6 0
BBX 5 8 0 0
BITMAP
70
F8
C8
C8
C8
C8
F8
78
ENDCHAR
STARTCHAR P
ENCODING 80
SWIDTH 470 0
DWIDTH 6 0
BBX 5 8 0 0
BITMAP
F8
D8
C8
C8
F8
C0
C0
C0
ENDCHAR
STARTCHAR Q
ENCODING 81
SWIDTH 470 0
DWIDTH 6 0
BBX 5 9 0 -1
BITMAP
70
F8
C8
C8
C8
C8
F8
78
18
ENDCHAR
STARTCHAR R
ENCODING 82
SWIDTH 470 0
DWIDTH 6 0
BBX 5 8 0 0
BITMAP
F0
D8
C8
C8
F8
D8
D8
C8
ENDCHAR
STARTCHAR S
ENCODING 83
SWIDTH 500 0
DWIDTH 6 0
BBX 5 8 0 0
BITMAP
78
F8
C0
70
78
08
F8
78
ENDCHAR
STARTCHAR T
ENCODING 84
SWIDTH 441 0
DWIDTH 5 0
BBX 5 8 0 0
BITMAP
F8
20
20
20
20
20
20
20
ENDCHAR
STARTCHAR U
ENCODING 85
SWIDTH 470 0
DWIDTH 6 0
BBX 5 8 0 0
BITMAP
C8
C8
C8
C8
C8
C8
F8
78
ENDCHAR
STARTCHAR V
ENCODING 86
SWIDTH 470 0
DWIDTH 6 0
BBX 5 8 0 0
BITMAP
C8
C8
C8
C8
C8
D8
70
20
ENDCHAR
STARTCHAR W
ENCODING 87
SWIDTH 617 0
DWIDTH 7 0
BBX 7 8 0 0
BITMAP
D6
D6
D6
D6
D6
D6
7C
6C
ENDCHAR
STARTCHAR X
ENCODING 88
SWIDTH 470 0
DWIDTH 6 0
BBX 5 8 0 0
BITMAP
C8
C8
78
30
70
D8
C8
C8
ENDCHAR
STARTCHAR Y
ENCODING 89
SWIDTH 500 0
DWIDTH 6 0
BBX 5 8 0 0
BITMAP
C8
C8
C8
C8
78
30
30
30
ENDCHAR
STARTCHAR Z
ENCODING 90
SWIDTH 500 0
DWIDTH 6 0
BBX 5 8 0 0
BITMAP
F8
F8
18
30
60
40
F8
F8
ENDCHAR
STARTCHAR bracketleft
ENCODING 91
SWIDTH 323 0
DWIDTH 4 0
BBX 3 9 0 -1
BITMAP
E0
C0
C0
C0
C0
C0
C0
C0
E0
ENDCHAR
STARTCHAR backslash
ENCODING 92
SWIDTH 382 0
DWIDTH 5 0
BBX 4 10 0 -2
BITMAP
C0
C0
40
40
60
60
20
30
30
30
ENDCHAR
STARTCHAR bracketright
ENCODING 93
SWIDTH 323 0
DWIDTH 4 0
BBX 3 9 0 -1
BITMAP
E0
20
20
20
20
20
20
20
E0
ENDCHAR
STARTCHAR asciicircum
ENCODING 94
SWIDTH 500 0
DWIDTH 6 0
BBX 5 3 0 5
BITMAP
30
78
C8
ENDCHAR
STARTCHAR underscore
ENCODING 95
SWIDTH 470 0
DWIDTH 6 0
BBX 5 1 0 -1
BITMAP
F8
ENDCHAR
STARTCHAR grave
ENCODING 96
SWIDTH 235 0
DWIDTH 3 0
BBX 2 2 0 7
BITMAP
C0
40
ENDCHAR
STARTCHAR a
ENCODING 97
SWIDTH 470 0
DWIDTH 6 0
BBX 5 6 0 0
BITMAP
78
D8
08
78
D8
68
ENDCHAR
STARTCHAR b
ENCODING 98
SWIDTH 470 0
DWIDTH 6 0
BBX 5 8 0 0
BITMAP
C0
C0
F0
D8
C8
C8
D8
F8
ENDCHAR
STARTCHAR c
ENCODING 99
SWIDTH 441 0
DWIDTH 5 0
BBX 5 6 0 0
BITMAP
70
D8
C0
C0
D8
78
ENDCHAR
STARTCHAR d
ENCODING 100
SWIDTH 470 0
DWIDTH 6 0
BBX 5 8 0 0
BITMAP
08
08
78
C8
C8
C8
D8
68
ENDCHAR
STARTCHAR e
ENCODING 101
SWIDTH 441 0
DWIDTH 5 0
BBX 5 6 0 0
BITMAP
70
D8
F8
C0
D8
78
ENDCHAR
STARTCHAR f
ENCODING 102
SWIDTH 323 0
DWIDTH 4 0
BBX 4 8 0 0
BITMAP
70
60
F0
40
40
40
40
40
ENDCHAR
STARTCHAR g
ENCODING 103
SWIDTH 470 0
DWIDTH 6 0
BBX 5 8 0 -2
BITMAP
78
C8
C8
C8
78
08
D8
78
ENDCHAR
STARTCHAR h
ENCODING 104
SWIDTH 470 0
DWIDTH 6 0
BBX 5 8 0 0
BITMAP
C0
C0
F8
C8
C8
C8
C8
C8
ENDCHAR
STARTCHAR i
ENCODING 105
SWIDTH 205 0
DWIDTH 2 0
BBX 2 8 0 0
BITMAP
C0
00
C0
C0
C0
C0
C0
C0
ENDCHAR
STARTCHAR j
ENCODING 106
SWIDTH 235 0
DWIDTH 3 0
BBX 2 10 0 -2
BITMAP
40
00
00
40
40
40
40
40
C0
C0
ENDCHAR
STARTCHAR k
ENCODING 107
SWIDTH 411 0
DWIDTH 5 0
BBX 4 8 0 0
BITMAP
C0
C0
D0
F0
F0
F0
D0
D0
ENDCHAR
STARTCHAR l
ENCODING 108
SWIDTH 205 0
DWIDTH 2 0
BBX 2 8 0 0
BITMAP
C0
C0
C0
C0
C0
C0
C0
C0
ENDCHAR
STARTCHAR m
ENCODING 109
SWIDTH 617 0
DWIDTH 7 0
BBX 7 6 0 0
BITMAP
FC
D6
D6
D6
D6
D6
ENDCHAR
STARTCHAR n
ENCODING 110
SWIDTH 470 0
DWIDTH 6 0
BBX 5 6 0 0
BITMAP
F8
C8
C8
C8
C8
C8
ENDCHAR
STARTCHAR o
ENCODING 111
SWIDTH 470 0
DWIDTH 6 0
BBX 5 6 0 0
BITMAP
70
D8
C8
C8
D8
78
ENDCHAR
STARTCHAR p
ENCODING 112
SWIDTH 470 0
DWIDTH 6 0
BBX 5 8 0 -2
BITMAP
F0
D8
C8
C8
D8
F8
C0
C0
ENDCHAR
STARTCHAR q
ENCODING 113
SWIDTH 470 0
DWIDTH 6 0
BBX 5 8 0 -2
BITMAP
78
C8
C8
C8
D8
68
08
08
ENDCHAR
STARTCHAR r
ENCODING 114
SWIDTH 352 0
DWIDTH 4 0
BBX 4 6 0 0
BITMAP
F0
D0
C0
C0
C0
C0
ENDCHAR
STARTCHAR s
ENCODING 115
SWIDTH 470 0
DWIDTH 6 0
BBX 5 6 0 0
BITMAP
78
D8
70
18
D8
78
ENDCHAR
STARTCHAR t
ENCODING 116
SWIDTH 352 0
DWIDTH 4 0
BBX 4 8 0 0
BITMAP
20
40
F0
40
40
40
60
30
ENDCHAR
STARTCHAR u
ENCODING 117
SWIDTH 470 0
DWIDTH 6 0
BBX 5 6 0 0
BITMAP
C8
C8
C8
C8
D8
68
ENDCHAR
STARTCHAR v
ENCODING 118
SWIDTH 470 0
DWIDTH 6 0
BBX 5 6 0 0
BITMAP
C8
C8
C8
C8
70
30
ENDCHAR
STARTCHAR w
ENCODING 119
SWIDTH 617 0
DWIDTH 7 0
BBX 7 6 0 0
BITMAP
D6
D6
D6
D6
7C
6C
ENDCHAR
STARTCHAR x
ENCODING 120
SWIDTH 470 0
DWIDTH 6 0
BBX 5 6 0 0
BITMAP
C8
D8
70
70
D8
C8
ENDCHAR
STARTCHAR y
ENCODING 121
SWIDTH 470 0
DWIDTH 6 0
BBX 5 8 0 -2
BITMAP
C8
C8
C8
D8
70
20
40
C0
ENDCHAR
STARTCHAR z
ENCODING 122
SWIDTH 441 0
DWIDTH 5 0
BBX 5 6 0 0
BITMAP
F8
F8
30
60
F8
F8
ENDCHAR
STARTCHAR braceleft
ENCODING 123
SWIDTH 294 0
DWIDTH 4 0
BBX 3 10 0 -2
BITMAP
60
40
40
40
40
C0
40
40
40
60
ENDCHAR
STARTCHAR bar
ENCODING 124
SWIDTH 352 0
DWIDTH 4 0
BBX 2 9 1 -1
BITMAP
C0
C0
C0
C0
C0
C0
C0
C0
C0
ENDCHAR
STARTCHAR braceright
ENCODING 125
SWIDTH 294 0
DWIDTH 4 0
BBX 3 10 0 -2
BITMAP
C0
40
40
40
20
40
40
40
40
C0
ENDCHAR
STARTCHAR asciitilde
ENCODING 126
SWIDTH 558 0
DWIDTH 7 0
BBX 6 3 0 2
BITMAP
68
FC
58
ENDCHAR
STARTCHAR uni00A0
ENCODING 160
SWIDTH 205 0
DWIDTH 2 0
BBX 1 1 0 0
BITMAP
00
ENDCHAR
STARTCHAR exclamdown
ENCODING 161
SWIDTH 205 0
DWIDTH 2 0
BBX 2 8 0 0
BITMAP
C0
00
40
40
C0
C0
C0
C0
ENDCHAR
STARTCHAR cent
ENCODING 162
SWIDTH 470 0
DWIDTH 6 0
BBX 5 7 0 0
BITMAP
20
70
E8
A0
A8
78
20
ENDCHAR
STARTCHAR sterling
ENCODING 163
SWIDTH 500 0
DWIDTH 6 0
BBX 5 8 0 0
BITMAP
78
78
40
F0
40
60
F8
F8
ENDCHAR
STARTCHAR yen
ENCODING 165
SWIDTH 500 0
DWIDTH 6 0
BBX 5 8 0 0
BITMAP
C8
C8
C8
78
F8
30
F8
30
ENDCHAR
STARTCHAR section
ENCODING 167
SWIDTH 441 0
DWIDTH 5 0
BBX 5 9 0 -1
BITMAP
70
D8
40
70
D8
70
10
D8
70
ENDCHAR
STARTCHAR dieresis
ENCODING 168
SWIDTH 352 0
DWIDTH 4 0
BBX 4 1 0 7
BITMAP
F0
ENDCHAR
STARTCHAR copyright
ENCODING 169
SWIDTH 735 0
DWIDTH 9 0
BBX 8 9 0 0
BITMAP
3C
42
9D
B5
A1
B5
9D
41
7E
ENDCHAR
STARTCHAR ordfeminine
ENCODING 170
SWIDTH 470 0
DWIDTH 6 0
BBX 5 5 0 0
BITMAP
78
C8
78
C8
78
ENDCHAR
STARTCHAR guillemotleft
ENCODING 171
SWIDTH 529 0
DWIDTH 6 0
BBX 6 4 0 2
BITMAP
24
48
D0
2C
ENDCHAR
STARTCHAR registered
ENCODING 174
SWIDTH 529 0
DWIDTH 6 0
BBX 6 6 0 2
BITMAP
30
48
B4
B4
48
78
ENDCHAR
STARTCHAR macron
ENCODING 175
SWIDTH 294 0
DWIDTH 4 0
BBX 3 1 0 7
BITMAP
E0
ENDCHAR
STARTCHAR degree
ENCODING 176
SWIDTH 352 0
DWIDTH 4 0
BBX 4 3 0 5
BITMAP
60
B0
60
ENDCHAR
STARTCHAR acute
ENCODING 180
SWIDTH 235 0
DWIDTH 3 0
BBX 2 2 0 7
BITMAP
40
C0
ENDCHAR
STARTCHAR paragraph
ENCODING 182
SWIDTH 470 0
DWIDTH 6 0
BBX 5 8 0 0
BITMAP
68
E8
68
68
28
28
28
28
ENDCHAR
STARTCHAR periodcentered
ENCODING 183
SWIDTH 205 0
DWIDTH 2 0
BBX 2 1 0 4
BITMAP
C0
ENDCHAR
STARTCHAR cedilla
ENCODING 184
SWIDTH 235 0
DWIDTH 3 0
BBX 2 2 0 -2
BITMAP
40
C0
ENDCHAR
STARTCHAR ordmasculine
ENCODING 186
SWIDTH 470 0
DWIDTH 6 0
BBX 5 5 0 0
BITMAP
78
C8
C8
C8
78
ENDCHAR
STARTCHAR guillemotright
ENCODING 187
SWIDTH 529 0
DWIDTH 6 0
BBX 6 4 0 2
BITMAP
90
48
2C
D0
ENDCHAR
STARTCHAR questiondown
ENCODING 191
SWIDTH 441 0
DWIDTH 5 0
BBX 5 8 0 0
BITMAP
20
20
20
20
40
C0
F8
70
ENDCHAR
STARTCHAR Agrave
ENCODING 192
SWIDTH 470 0
DWIDTH 6 0
BBX 5 10 0 0
BITMAP
20
30
20
70
D8
C8
C8
F8
C8
C8
ENDCHAR
STARTCHAR Aacute
ENCODING 193
SWIDTH 470 0
DWIDTH 6 0
BBX 5 10 0 0
BITMAP
10
20
20
70
D8
C8
C8
F8
C8
C8
ENDCHAR
STARTCHAR Acircumflex
ENCODING 194
SWIDTH 470 0
DWIDTH 6 0
BBX 5 10 0 0
BITMAP
20
50
20
70
D8
C8
C8
F8
C8
C8
ENDCHAR
STARTCHAR Atilde
ENCODING 195
SWIDTH 470 0
DWIDTH 6 0
BBX 5 10 0 0
BITMAP
70
00
20
70
D8
C8
C8
F8
C8
C8
ENDCHAR
STARTCHAR Adieresis
ENCODING 196
SWIDTH 470 0
DWIDTH 6 0
BBX 5 10 0 0
BITMAP
50
00
20
70
D8
C8
C8
F8
C8
C8
ENDCHAR
STARTCHAR Aring
ENCODING 197
SWIDTH 470 0
DWIDTH 6 0
BBX 5 11 0 0
BITMAP
30
30
30
20
70
D8
C8
C8
F8
C8
C8
ENDCHAR
STARTCHAR AE
ENCODING 198
SWIDTH 676 0
DWIDTH 8 0
BBX 7 8 0 0
BITMAP
2E
78
D8
CE
C8
F8
C8
CE
ENDCHAR
STARTCHAR Ccedilla
ENCODING 199
SWIDTH 470 0
DWIDTH 6 0
BBX 5 10 0 -2
BITMAP
70
D8
C0
C0
C0
C8
78
78
20
30
ENDCHAR
STARTCHAR Egrave
ENCODING 200
SWIDTH 441 0
DWIDTH 5 0
BBX 5 10 0 0
BITMAP
20
30
F8
C0
C0
F0
C0
C0
C0
F8
ENDCHAR
STARTCHAR Eacute
ENCODING 201
SWIDTH 441 0
DWIDTH 5 0
BBX 5 10 0 0
BITMAP
30
20
F8
C0
C0
F0
C0
C0
C0
F8
ENDCHAR
STARTCHAR Ecircumflex
ENCODING 202
SWIDTH 441 0
DWIDTH 5 0
BBX 5 10 0 0
BITMAP
20
50
F8
C0
C0
F0
C0
C0
C0
F8
ENDCHAR
STARTCHAR Edieresis
ENCODING 203
SWIDTH 441 0
DWIDTH 5 0
BBX 5 10 0 0
BITMAP
50
00
F8
C0
C0
F0
C0
C0
C0
F8
ENDCHAR
STARTCHAR Igrave
ENCODING 204
SWIDTH 205 0
DWIDTH 2 0
BBX 2 10 0 0
BITMAP
80
40
C0
C0
C0
C0
C0
C0
C0
C0
ENDCHAR
STARTCHAR Iacute
ENCODING 205
SWIDTH 205 0
DWIDTH 2 0
BBX 2 10 0 0
BITMAP
40
80
C0
C0
C0
C0
C0
C0
C0
C0
ENDCHAR
STARTCHAR Icircumflex
ENCODING 206
SWIDTH 205 0
DWIDTH 2 0
BBX 2 10 0 0
BITMAP
40
C0
C0
C0
C0
C0
C0
C0
C0
C0
ENDCHAR
STARTCHAR Idieresis
ENCODING 207
SWIDTH 205 0
DWIDTH 2 0
BBX 4 10 -1 0
BITMAP
F0
00
60
60
60
60
60
60
60
60
ENDCHAR
STARTCHAR Eth
ENCODING 208
SWIDTH 500 0
DWIDTH 6 0
BBX 5 8 0 0
BITMAP
70
78
48
E8
48
48
78
78
ENDCHAR
STARTCHAR Ntilde
ENCODING 209
SWIDTH 529 0
DWIDTH 6 0
BBX 6 10 0 0
BITMAP
38
00
CC
EC
EC
FC
FC
DC
DC
CC
ENDCHAR
STARTCHAR Ograve
ENCODING 210
SWIDTH 470 0
DWIDTH 6 0
BBX 5 10 0 0
BITMAP
20
10
70
F8
C8
C8
C8
C8
F8
78
ENDCHAR
STARTCHAR Oacute
ENCODING 211
SWIDTH 470 0
DWIDTH 6 0
BBX 5 10 0 0
BITMAP
10
20
70
F8
C8
C8
C8
C8
F8
78
ENDCHAR
STARTCHAR Ocircumflex
ENCODING 212
SWIDTH 470 0
DWIDTH 6 0
BBX 5 10 0 0
BITMAP
20
50
70
F8
C8
C8
C8
C8
F8
78
ENDCHAR
STARTCHAR Otilde
ENCODING 213
SWIDTH 470 0
DWIDTH 6 0
BBX 5 10 0 0
BITMAP
70
00
70
F8
C8
C8
C8
C8
F8
78
ENDCHAR
STARTCHAR Odieresis
ENCODING 214
SWIDTH 470 0
DWIDTH 6 0
BBX 5 10 0 0
BITMAP
50
50
70
F8
C8
C8
C8
C8
F8
78
ENDCHAR
STARTCHAR multiply
ENCODING 215
SWIDTH 441 0
DWIDTH 5 0
BBX 5 4 0 2
BITMAP
88
70
20
D8
ENDCHAR
STARTCHAR Oslash
ENCODING 216
SWIDTH 588 0
DWIDTH 7 0
BBX 7 9 0 0
BITMAP
02
3A
7C
4C
5C
7C
6C
FC
F8
ENDCHAR
STARTCHAR Ugrave
ENCODING 217
SWIDTH 470 0
DWIDTH 6 0
BBX 5 10 0 0
BITMAP
20
10
C8
C8
C8
C8
C8
C8
F8
78
ENDCHAR
STARTCHAR Uacute
ENCODING 218
SWIDTH 470 0
DWIDTH 6 0
BBX 5 10 0 0
BITMAP
10
20
C8
C8
C8
C8
C8
C8
F8
78
ENDCHAR
STARTCHAR Ucircumflex
ENCODING 219
SWIDTH 470 0
DWIDTH 6 0
BBX 5 10 0 0
BITMAP
70
00
C8
C8
C8
C8
C8
C8
F8
78
ENDCHAR
STARTCHAR Udieresis
ENCODING 220
SWIDTH 470 0
DWIDTH 6 0
BBX 5 11 0 0
BITMAP
50
50
00
C8
C8
C8
C8
C8
C8
F8
78
ENDCHAR
STARTCHAR Yacute
ENCODING 221
SWIDTH 500 0
DWIDTH 6 0
BBX 5 10 0 0
BITMAP
10
20
C8
C8
C8
C8
78
30
30
30
ENDCHAR
STARTCHAR Thorn
ENCODING 222
SWIDTH 470 0
DWIDTH 6 0
BBX 5 8 0 0
BITMAP
C0
F0
F8
C8
C8
F8
F0
C0
ENDCHAR
STARTCHAR germandbls
ENCODING 223
SWIDTH 470 0
DWIDTH 6 0
BBX 5 8 0 0
BITMAP
70
F8
C8
D8
D8
C8
F8
F8
ENDCHAR
STARTCHAR agrave
ENCODING 224
SWIDTH 470 0
DWIDTH 6 0
BBX 5 9 0 0
BITMAP
20
30
00
78
D8
08
78
D8
68
ENDCHAR
STARTCHAR aacute
ENCODING 225
SWIDTH 470 0
DWIDTH 6 0
BBX 5 9 0 0
BITMAP
30
20
00
78
D8
08
78
D8
68
ENDCHAR
STARTCHAR acircumflex
ENCODING 226
SWIDTH 470 0
DWIDTH 6 0
BBX 5 9 0 0
BITMAP
20
50
00
78
D8
08
78
D8
68
ENDCHAR
STARTCHAR atilde
ENCODING 227
SWIDTH 470 0
DWIDTH 6 0
BBX 5 8 0 0
BITMAP
70
00
78
D8
08
78
D8
68
ENDCHAR
STARTCHAR adieresis
ENCODING 228
SWIDTH 470 0
DWIDTH 6 0
BBX 5 8 0 0
BITMAP
50
00
78
D8
08
78
D8
68
ENDCHAR
STARTCHAR aring
ENCODING 229
SWIDTH 470 0
DWIDTH 6 0
BBX 5 9 0 0
BITMAP
30
30
00
78
D8
08
78
D8
68
ENDCHAR
STARTCHAR ae
ENCODING 230
SWIDTH 735 0
DWIDTH 9 0
BBX 8 6 0 0
BITMAP
7F
DB
0F
78
DB
6E
ENDCHAR
STARTCHAR ccedilla
ENCODING 231
SWIDTH 441 0
DWIDTH 5 0
BBX 5 8 0 -2
BITMAP
70
D8
C0
C0
D8
78
20
70
ENDCHAR
STARTCHAR egrave
ENCODING 232
SWIDTH 441 0
DWIDTH 5 0
BBX 5 9 0 0
BITMAP
20
30
00
70
D8
F8
C0
D8
78
ENDCHAR
STARTCHAR eacute
ENCODING 233
SWIDTH 441 0
DWIDTH 5 0
BBX 5 9 0 0
BITMAP
30
20
00
70
D8
F8
C0
D8
78
ENDCHAR
STARTCHAR ecircumflex
ENCODING 234
SWIDTH 441 0
DWIDTH 5 0
BBX 5 9 0 0
BITMAP
20
50
00
70
D8
F8
C0
D8
78
ENDCHAR
STARTCHAR edieresis
ENCODING 235
SWIDTH 441 0
DWIDTH 5 0
BBX 5 8 0 0
BITMAP
50
00
70
D8
F8
C0
D8
78
ENDCHAR
STARTCHAR igrave
ENCODING 236
SWIDTH 205 0
DWIDTH 2 0
BBX 2 9 0 0
BITMAP
80
40
00
C0
C0
C0
C0
C0
C0
ENDCHAR
STARTCHAR iacute
ENCODING 237
SWIDTH 205 0
DWIDTH 2 0
BBX 2 9 0 0
BITMAP
40
80
00
C0
C0
C0
C0
C0
C0
ENDCHAR
STARTCHAR icircumflex
ENCODING 238
SWIDTH 205 0
DWIDTH 2 0
BBX 2 8 0 0
BITMAP
C0
00
C0
C0
C0
C0
C0
C0
ENDCHAR
STARTCHAR idieresis
ENCODING 239
SWIDTH 205 0
DWIDTH 2 0
BBX 4 8 -1 0
BITMAP
F0
00
60
60
60
60
60
60
ENDCHAR
STARTCHAR eth
ENCODING 240
SWIDTH 470 0
DWIDTH 6 0
BBX 5 9 0 0
BITMAP
20
70
30
18
78
C8
C8
D8
70
ENDCHAR
STARTCHAR ntilde
ENCODING 241
SWIDTH 470 0
DWIDTH 6 0
BBX 5 8 0 0
BITMAP
70
00
F8
C8
C8
C8
C8
C8
ENDCHAR
STARTCHAR ograve
ENCODING 242
SWIDTH 470 0
DWIDTH 6 0
BBX 5 9 0 0
BITMAP
20
30
00
70
D8
C8
C8
D8
78
ENDCHAR
STARTCHAR oacute
ENCODING 243
SWIDTH 470 0
DWIDTH 6 0
BBX 5 9 0 0
BITMAP
30
20
00
70
D8
C8
C8
D8
78
ENDCHAR
STARTCHAR ocircumflex
ENCODING 244
SWIDTH 470 0
DWIDTH 6 0
BBX 5 8 0 0
BITMAP
70
00
70
D8
C8
C8
D8
78
ENDCHAR
STARTCHAR otilde
ENCODING 245
SWIDTH 470 0
DWIDTH 6 0
BBX 5 8 0 0
BITMAP
70
00
70
D8
C8
C8
D8
78
ENDCHAR
STARTCHAR odieresis
ENCODING 246
SWIDTH 470 0
DWIDTH 6 0
BBX 5 8 0 0
BITMAP
50
00
70
D8
C8
C8
D8
78
ENDCHAR
STARTCHAR divide
ENCODING 247
SWIDTH 500 0
DWIDTH 6 0
BBX 5 6 0 1
BITMAP
30
00
00
F8
00
30
ENDCHAR
STARTCHAR oslash
ENCODING 248
SWIDTH 470 0
DWIDTH 6 0
BBX 6 6 0 0
BITMAP
74
48
F8
C8
D8
F8
ENDCHAR
STARTCHAR ugrave
ENCODING 249
SWIDTH 470 0
DWIDTH 6 0
BBX 5 9 0 0
BITMAP
20
30
00
C8
C8
C8
C8
D8
68
ENDCHAR
STARTCHAR uacute
ENCODING 250
SWIDTH 470 0
DWIDTH 6 0
BBX 5 9 0 0
BITMAP
30
20
00
C8
C8
C8
C8
D8
68
ENDCHAR
STARTCHAR ucircumflex
ENCODING 251
SWIDTH 470 0
DWIDTH 6 0
BBX 5 8 0 0
BITMAP
70
00
C8
C8
C8
C8
D8
68
ENDCHAR
STARTCHAR udieresis
ENCODING 252
SWIDTH 470 0
DWIDTH 6 0
BBX 5 8 0 0
BITMAP
50
00
C8
C8
C8
C8
D8
68
ENDCHAR
STARTCHAR yacute
ENCODING 253
SWIDTH 470 0
DWIDTH 6 0
BBX 5 11 0 -2
BITMAP
30
20
00
C8
C8
C8
D8
70
20
40
C0
ENDCHAR
STARTCHAR thorn
ENCODING 254
SWIDTH 470 0
DWIDTH 6 0
BBX 5 10 0 -2
BITMAP
C0
C0
F0
D8
C8
C8
D8
F8
C0
C0
ENDCHAR
STARTCHAR ydieresis
ENCODING 255
SWIDTH 470 0
DWIDTH 6 0
BBX 5 10 0 -2
BITMAP
50
00
C8
C8
C8
D8
70
20
40
C0
ENDCHAR
STARTCHAR Amacron
ENCODING 256
SWIDTH 470 0
DWIDTH 6 0
BBX 5 10 0 0
BITMAP
70
00
20
70
D8
C8
C8
F8
C8
C8
ENDCHAR
STARTCHAR amacron
ENCODING 257
SWIDTH 470 0
DWIDTH 6 0
BBX 5 8 0 0
BITMAP
70
00
78
D8
08
78
D8
68
ENDCHAR
STARTCHAR Abreve
ENCODING 258
SWIDTH 470 0
DWIDTH 6 0
BBX 5 10 0 0
BITMAP
50
30
20
70
D8
C8
C8
F8
C8
C8
ENDCHAR
STARTCHAR abreve
ENCODING 259
SWIDTH 470 0
DWIDTH 6 0
BBX 5 8 0 0
BITMAP
30
00
78
D8
08
78
D8
68
ENDCHAR
STARTCHAR Aogonek
ENCODING 260
SWIDTH 470 0
DWIDTH 6 0
BBX 5 10 0 -2
BITMAP
20
70
D8
C8
C8
F8
C8
C8
08
18
ENDCHAR
STARTCHAR aogonek
ENCODING 261
SWIDTH 470 0
DWIDTH 6 0
BBX 5 8 0 -2
BITMAP
78
D8
08
78
D8
68
10
18
ENDCHAR
STARTCHAR Cacute
ENCODING 262
SWIDTH 470 0
DWIDTH 6 0
BBX 5 10 0 0
BITMAP
10
20
70
F8
C8
C0
C0
C8
F8
78
ENDCHAR
STARTCHAR cacute
ENCODING 263
SWIDTH 441 0
DWIDTH 5 0
BBX 5 9 0 0
BITMAP
30
20
00
70
D8
C0
C0
D8
78
ENDCHAR
STARTCHAR Cdotaccent
ENCODING 266
SWIDTH 470 0
DWIDTH 6 0
BBX 5 10 0 0
BITMAP
30
20
70
F8
C8
C0
C0
C8
F8
78
ENDCHAR
STARTCHAR cdotaccent
ENCODING 267
SWIDTH 441 0
DWIDTH 5 0
BBX 5 8 0 0
BITMAP
30
00
70
D8
C0
C0
D8
78
ENDCHAR
STARTCHAR Ccaron
ENCODING 268
SWIDTH 470 0
DWIDTH 6 0
BBX 5 10 0 0
BITMAP
50
20
70
F8
C8
C0
C0
C8
F8
78
ENDCHAR
STARTCHAR ccaron
ENCODING 269
SWIDTH 441 0
DWIDTH 5 0
BBX 5 9 0 0
BITMAP
50
20
00
70
D8
C0
C0
D8
78
ENDCHAR
STARTCHAR Dcaron
ENCODING 270
SWIDTH 470 0
DWIDTH 6 0
BBX 5 10 0 0
BITMAP
70
00
F0
F8
C8
C8
C8
C8
F8
F8
ENDCHAR
STARTCHAR dcaron
ENCODING 271
SWIDTH 588 0
DWIDTH 7 0
BBX 7 8 0 0
BITMAP
0A
0C
78
C8
C8
C8
D8
68
ENDCHAR
STARTCHAR Dcroat
ENCODING 272
SWIDTH 500 0
DWIDTH 6 0
BBX 5 8 0 0
BITMAP
70
78
48
E8
48
48
78
78
ENDCHAR
STARTCHAR dcroat
ENCODING 273
SWIDTH 470 0
DWIDTH 6 0
BBX 6 8 0 0
BITMAP
08
3C
08
78
C8
C8
D8
68
ENDCHAR
STARTCHAR Emacron
ENCODING 274
SWIDTH 441 0
DWIDTH 5 0
BBX 5 10 0 0
BITMAP
70
00
F8
C0
C0
F0
C0
C0
C0
F8
ENDCHAR
STARTCHAR emacron
ENCODING 275
SWIDTH 441 0
DWIDTH 5 0
BBX 5 8 0 0
BITMAP
70
00
70
D8
F8
C0
D8
78
ENDCHAR
STARTCHAR Edotaccent
ENCODING 278
SWIDTH 441 0
DWIDTH 5 0
BBX 5 10 0 0
BITMAP
20
00
F8
C0
C0
F0
C0
C0
C0
F8
ENDCHAR
STARTCHAR edotaccent
ENCODING 279
SWIDTH 441 0
DWIDTH 5 0
BBX 5 8 0 0
BITMAP
30
00
70
D8
F8
C0
D8
78
ENDCHAR
STARTCHAR Eogonek
ENCODING 280
SWIDTH 441 0
DWIDTH 5 0
BBX 5 10 0 -2
BITMAP
F8
C0
C0
F0
C0
C0
C0
F8
20
70
ENDCHAR
STARTCHAR eogonek
ENCODING 281
SWIDTH 441 0
DWIDTH 5 0
BBX 5 8 0 -2
BITMAP
70
D8
F8
C0
C8
78
20
70
ENDCHAR
STARTCHAR Ecaron
ENCODING 282
SWIDTH 441 0
DWIDTH 5 0
BBX 5 10 0 0
BITMAP
70
00
F8
C0
C0
F0
C0
C0
C0
F8
ENDCHAR
STARTCHAR ecaron
ENCODING 283
SWIDTH 441 0
DWIDTH 5 0
BBX 5 9 0 0
BITMAP
50
20
00
70
D8
F8
C0
D8
78
ENDCHAR
STARTCHAR Gbreve
ENCODING 286
SWIDTH 470 0
DWIDTH 6 0
BBX 5 10 0 0
BITMAP
50
30
70
F8
C8
F8
F8
C8
F8
78
ENDCHAR
STARTCHAR gbreve
ENCODING 287
SWIDTH 470 0
DWIDTH 6 0
BBX 5 10 0 -2
BITMAP
30
00
78
C8
C8
C8
78
08
D8
78
ENDCHAR
STARTCHAR Gdotaccent
ENCODING 288
SWIDTH 470 0
DWIDTH 6 0
BBX 5 10 0 0
BITMAP
30
20
70
F8
C8
F8
F8
C8
F8
78
ENDCHAR
STARTCHAR gdotaccent
ENCODING 289
SWIDTH 470 0
DWIDTH 6 0
BBX 5 10 0 -2
BITMAP
30
00
78
C8
C8
C8
78
08
D8
78
ENDCHAR
STARTCHAR uni0122
ENCODING 290
SWIDTH 470 0
DWIDTH 6 0
BBX 5 11 0 -3
BITMAP
70
F8
C8
F8
F8
C8
F8
78
00
30
20
ENDCHAR
STARTCHAR uni0123
ENCODING 291
SWIDTH 470 0
DWIDTH 6 0
BBX 5 11 0 -2
BITMAP
10
30
00
78
C8
C8
C8
78
08
D8
78
ENDCHAR
STARTCHAR Hbar
ENCODING 294
SWIDTH 529 0
DWIDTH 6 0
BBX 6 8 0 0
BITMAP
48
FC
48
78
48
48
48
48
ENDCHAR
STARTCHAR hbar
ENCODING 295
SWIDTH 500 0
DWIDTH 6 0
BBX 5 8 0 0
BITMAP
40
F0
40
78
48
48
48
48
ENDCHAR
STARTCHAR Imacron
ENCODING 298
SWIDTH 205 0
DWIDTH 2 0
BBX 2 10 0 0
BITMAP
C0
00
C0
C0
C0
C0
C0
C0
C0
C0
ENDCHAR
STARTCHAR imacron
ENCODING 299
SWIDTH 205 0
DWIDTH 2 0
BBX 2 8 0 0
BITMAP
C0
00
C0
C0
C0
C0
C0
C0
ENDCHAR
STARTCHAR Iogonek
ENCODING 302
SWIDTH 205 0
DWIDTH 2 0
BBX 2 10 0 -2
BITMAP
C0
C0
C0
C0
C0
C0
C0
C0
40
C0
ENDCHAR
STARTCHAR iogonek
ENCODING 303
SWIDTH 205 0
DWIDTH 2 0
BBX 2 10 0 -2
BITMAP
C0
00
C0
C0
C0
C0
C0
C0
40
C0
ENDCHAR
STARTCHAR Idotaccent
ENCODING 304
SWIDTH 205 0
DWIDTH 2 0
BBX 2 10 0 0
BITMAP
C0
00
C0
C0
C0
C0
C0
C0
C0
C0
ENDCHAR
STARTCHAR dotlessi
ENCODING 305
SWIDTH 205 0
DWIDTH 2 0
BBX 2 6 0 0
BITMAP
C0
C0
C0
C0
C0
C0
ENDCHAR
STARTCHAR IJ
ENCODING 306
SWIDTH 647 0
DWIDTH 8 0
BBX 7 8 0 0
BITMAP
C2
C2
C2
C2
C2
C2
DE
DE
ENDCHAR
STARTCHAR ij
ENCODING 307
SWIDTH 441 0
DWIDTH 5 0
BBX 5 10 0 -2
BITMAP
D8
00
C0
D8
D8
D8
D8
D8
18
30
ENDCHAR
STARTCHAR uni0136
ENCODING 310
SWIDTH 441 0
DWIDTH 5 0
BBX 5 11 0 -3
BITMAP
D8
D8
D8
F0
F0
D8
D8
D8
00
20
20
ENDCHAR
STARTCHAR uni0137
ENCODING 311
SWIDTH 411 0
DWIDTH 5 0
BBX 4 11 0 -3
BITMAP
C0
C0
D0
F0
F0
F0
D0
D0
00
20
20
ENDCHAR
STARTCHAR Lacute
ENCODING 313
SWIDTH 382 0
DWIDTH 5 0
BBX 4 10 0 0
BITMAP
40
40
C0
C0
C0
C0
C0
C0
F0
F0
ENDCHAR
STARTCHAR lacute
ENCODING 314
SWIDTH 205 0
DWIDTH 2 0
BBX 2 10 0 0
BITMAP
40
80
C0
C0
C0
C0
C0
C0
C0
C0
ENDCHAR
STARTCHAR uni013B
ENCODING 315
SWIDTH 382 0
DWIDTH 5 0
BBX 4 11 0 -3
BITMAP
C0
C0
C0
C0
C0
C0
F0
F0
00
20
20
ENDCHAR
STARTCHAR uni013C
ENCODING 316
SWIDTH 205 0
DWIDTH 2 0
BBX 2 11 0 -3
BITMAP
C0
C0
C0
C0
C0
C0
C0
C0
00
40
40
ENDCHAR
STARTCHAR Lcaron
ENCODING 317
SWIDTH 382 0
DWIDTH 5 0
BBX 4 8 0 0
BITMAP
D0
D0
C0
C0
C0
C0
F0
F0
ENDCHAR
STARTCHAR lcaron
ENCODING 318
SWIDTH 323 0
DWIDTH 4 0
BBX 4 8 0 0
BITMAP
F0
E0
C0
C0
C0
C0
C0
C0
ENDCHAR
STARTCHAR Lslash
ENCODING 321
SWIDTH 500 0
DWIDTH 6 0
BBX 5 8 0 0
BITMAP
20
28
38
30
60
E0
38
38
ENDCHAR
STARTCHAR lslash
ENCODING 322
SWIDTH 382 0
DWIDTH 5 0
BBX 4 8 0 0
BITMAP
60
60
70
60
60
E0
60
60
ENDCHAR
STARTCHAR Nacute
ENCODING 323
SWIDTH 529 0
DWIDTH 6 0
BBX 6 10 0 0
BITMAP
10
30
CC
EC
EC
FC
FC
DC
DC
CC
ENDCHAR
STARTCHAR nacute
ENCODING 324
SWIDTH 470 0
DWIDTH 6 0
BBX 5 9 0 0
BITMAP
30
20
00
F8
C8
C8
C8
C8
C8
ENDCHAR
STARTCHAR uni0145
ENCODING 325
SWIDTH 529 0
DWIDTH 6 0
BBX 6 11 0 -3
BITMAP
CC
EC
EC
FC
FC
DC
DC
CC
00
10
10
ENDCHAR
STARTCHAR uni0146
ENCODING 326
SWIDTH 470 0
DWIDTH 6 0
BBX 5 9 0 -3
BITMAP
F8
C8
C8
C8
C8
C8
00
20
20
ENDCHAR
STARTCHAR Ncaron
ENCODING 327
SWIDTH 529 0
DWIDTH 6 0
BBX 6 10 0 0
BITMAP
30
00
CC
EC
EC
FC
FC
DC
DC
CC
ENDCHAR
STARTCHAR ncaron
ENCODING 328
SWIDTH 470 0
DWIDTH 6 0
BBX 5 9 0 0
BITMAP
30
30
00
F8
C8
C8
C8
C8
C8
ENDCHAR
STARTCHAR Eng
ENCODING 330
SWIDTH 529 0
DWIDTH 6 0
BBX 6 9 0 -1
BITMAP
CC
EC
EC
FC
FC
DC
DC
CC
08
ENDCHAR
STARTCHAR eng
ENCODING 331
SWIDTH 470 0
DWIDTH 6 0
BBX 5 8 0 -2
BITMAP
F8
C8
C8
C8
C8
C8
08
10
ENDCHAR
STARTCHAR Omacron
ENCODING 332
SWIDTH 470 0
DWIDTH 6 0
BBX 5 10 0 0
BITMAP
70
00
70
F8
C8
C8
C8
C8
F8
78
ENDCHAR
STARTCHAR omacron
ENCODING 333
SWIDTH 470 0
DWIDTH 6 0
BBX 5 8 0 0
BITMAP
70
00
70
D8
C8
C8
D8
78
ENDCHAR
STARTCHAR Ohungarumlaut
ENCODING 336
SWIDTH 470 0
DWIDTH 6 0
BBX 5 10 0 0
BITMAP
28
50
70
F8
C8
C8
C8
C8
F8
78
ENDCHAR
STARTCHAR ohungarumlaut
ENCODING 337
SWIDTH 470 0
DWIDTH 6 0
BBX 5 9 0 0
BITMAP
68
50
00
70
D8
C8
C8
D8
78
ENDCHAR
STARTCHAR OE
ENCODING 338
SWIDTH 676 0
DWIDTH 8 0
BBX 7 8 0 0
BITMAP
7E
FE
C8
CE
CE
C8
FE
7E
ENDCHAR
STARTCHAR oe
ENCODING 339
SWIDTH 735 0
DWIDTH 9 0
BBX 8 6 0 0
BITMAP
76
DB
CF
C8
DB
7F
ENDCHAR
STARTCHAR Racute
ENCODING 340
SWIDTH 470 0
DWIDTH 6 0
BBX 5 10 0 0
BITMAP
30
20
F0
D8
C8
C8
F8
D8
D8
C8
ENDCHAR
STARTCHAR racute
ENCODING 341
SWIDTH 352 0
DWIDTH 4 0
BBX 4 9 0 0
BITMAP
20
40
00
F0
D0
C0
C0
C0
C0
ENDCHAR
STARTCHAR uni0156
ENCODING 342
SWIDTH 470 0
DWIDTH 6 0
BBX 5 11 0 -3
BITMAP
F0
D8
C8
C8
F8
D8
D8
C8
00
20
20
ENDCHAR
STARTCHAR uni0157
ENCODING 343
SWIDTH 352 0
DWIDTH 4 0
BBX 4 9 0 -3
BITMAP
F0
D0
C0
C0
C0
C0
00
40
40
ENDCHAR
STARTCHAR Rcaron
ENCODING 344
SWIDTH 470 0
DWIDTH 6 0
BBX 5 10 0 0
BITMAP
70
00
F0
D8
C8
C8
F8
D8
D8
C8
ENDCHAR
STARTCHAR rcaron
ENCODING 345
SWIDTH 352 0
DWIDTH 4 0
BBX 4 9 0 0
BITMAP
60
60
00
F0
D0
C0
C0
C0
C0
ENDCHAR
STARTCHAR Sacute
ENCODING 346
SWIDTH 500 0
DWIDTH 6 0
BBX 5 10 0 0
BITMAP
10
20
78
F8
C0
70
78
08
F8
78
ENDCHAR
STARTCHAR sacute
ENCODING 347
SWIDTH 470 0
DWIDTH 6 0
BBX 5 9 0 0
BITMAP
30
20
00
78
D8
70
18
D8
78
ENDCHAR
STARTCHAR Scedilla
ENCODING 350
SWIDTH 500 0
DWIDTH 6 0
BBX 5 10 0 -2
BITMAP
78
C8
C0
70
08
08
C8
78
20
30
ENDCHAR
STARTCHAR scedilla
ENCODING 351
SWIDTH 470 0
DWIDTH 6 0
BBX 5 8 0 -2
BITMAP
78
D8
70
18
C8
78
20
30
ENDCHAR
STARTCHAR Scaron
ENCODING 352
SWIDTH 500 0
DWIDTH 6 0
BBX 5 10 0 0
BITMAP
30
00
78
F8
C0
70
78
08
F8
78
ENDCHAR
STARTCHAR scaron
ENCODING 353
SWIDTH 470 0
DWIDTH 6 0
BBX 5 9 0 0
BITMAP
30
30
00
78
D8
70
18
D8
78
ENDCHAR
STARTCHAR Tcaron
ENCODING 356
SWIDTH 441 0
DWIDTH 5 0
BBX 5 10 0 0
BITMAP
70
00
F8
20
20
20
20
20
20
20
ENDCHAR
STARTCHAR tcaron
ENCODING 357
SWIDTH 411 0
DWIDTH 5 0
BBX 5 8 0 0
BITMAP
08
40
F0
40
40
40
60
30
ENDCHAR
STARTCHAR Umacron
ENCODING 362
SWIDTH 470 0
DWIDTH 6 0
BBX 5 10 0 0
BITMAP
70
00
C8
C8
C8
C8
C8
C8
F8
78
ENDCHAR
STARTCHAR umacron
ENCODING 363
SWIDTH 470 0
DWIDTH 6 0
BBX 5 8 0 0
BITMAP
70
00
C8
C8
C8
C8
D8
68
ENDCHAR
STARTCHAR Ubreve
ENCODING 364
SWIDTH 470 0
DWIDTH 6 0
BBX 5 10 0 0
BITMAP
50
30
C8
C8
C8
C8
C8
C8
F8
78
ENDCHAR
STARTCHAR ubreve
ENCODING 365
SWIDTH 470 0
DWIDTH 6 0
BBX 5 8 0 0
BITMAP
30
00
C8
C8
C8
C8
D8
68
ENDCHAR
STARTCHAR Uring
ENCODING 366
SWIDTH 470 0
DWIDTH 6 0
BBX 5 11 0 0
BITMAP
30
30
30
C8
C8
C8
C8
C8
C8
F8
78
ENDCHAR
STARTCHAR uring
ENCODING 367
SWIDTH 470 0
DWIDTH 6 0
BBX 5 9 0 0
BITMAP
30
30
00
C8
C8
C8
C8
D8
68
ENDCHAR
STARTCHAR Uhungarumlaut
ENCODING 368
SWIDTH 470 0
DWIDTH 6 0
BBX 5 10 0 0
BITMAP
28
50
C8
C8
C8
C8
C8
C8
F8
78
ENDCHAR
STARTCHAR uhungarumlaut
ENCODING 369
SWIDTH 470 0
DWIDTH 6 0
BBX 5 9 0 0
BITMAP
68
50
00
C8
C8
C8
C8
D8
68
ENDCHAR
STARTCHAR Uogonek
ENCODING 370
SWIDTH 470 0
DWIDTH 6 0
BBX 5 10 0 -2
BITMAP
C8
C8
C8
C8
C8
C8
D8
78
20
30
ENDCHAR
STARTCHAR uogonek
ENCODING 371
SWIDTH 470 0
DWIDTH 6 0
BBX 5 8 0 -2
BITMAP
C8
C8
C8
C8
D8
68
10
18
ENDCHAR
STARTCHAR Wcircumflex
ENCODING 372
SWIDTH 617 0
DWIDTH 7 0
BBX 7 10 0 0
BITMAP
10
28
D6
D6
D6
D6
D6
D6
7C
6C
ENDCHAR
STARTCHAR wcircumflex
ENCODING 373
SWIDTH 617 0
DWIDTH 7 0
BBX 7 8 0 0
BITMAP
38
00
D6
D6
D6
D6
7C
6C
ENDCHAR
STARTCHAR Ycircumflex
ENCODING 374
SWIDTH 500 0
DWIDTH 6 0
BBX 5 10 0 0
BITMAP
20
30
C8
C8
C8
C8
78
30
30
30
ENDCHAR
STARTCHAR ycircumflex
ENCODING 375
SWIDTH 470 0
DWIDTH 6 0
BBX 5 10 0 -2
BITMAP
70
00
C8
C8
C8
D8
70
20
40
C0
ENDCHAR
STARTCHAR Ydieresis
ENCODING 376
SWIDTH 500 0
DWIDTH 6 0
BBX 5 10 0 0
BITMAP
58
00
C8
C8
C8
C8
78
30
30
30
ENDCHAR
STARTCHAR Zacute
ENCODING 377
SWIDTH 500 0
DWIDTH 6 0
BBX 5 10 0 0
BITMAP
10
20
F8
F8
18
30
60
40
F8
F8
ENDCHAR
STARTCHAR zacute
ENCODING 378
SWIDTH 441 0
DWIDTH 5 0
BBX 5 9 0 0
BITMAP
30
60
00
F8
F8
30
60
F8
F8
ENDCHAR
STARTCHAR Zdotaccent
ENCODING 379
SWIDTH 500 0
DWIDTH 6 0
BBX 5 10 0 0
BITMAP
30
20
F8
F8
18
30
60
40
F8
F8
ENDCHAR
STARTCHAR zdotaccent
ENCODING 380
SWIDTH 441 0
DWIDTH 5 0
BBX 5 9 0 0
BITMAP
20
20
00
F8
F8
30
60
F8
F8
ENDCHAR
STARTCHAR Zcaron
ENCODING 381
SWIDTH 500 0
DWIDTH 6 0
BBX 5 10 0 0
BITMAP
30
00
F8
F8
18
30
60
40
F8
F8
ENDCHAR
STARTCHAR zcaron
ENCODING 382
SWIDTH 441 0
DWIDTH 5 0
BBX 5 9 0 0
BITMAP
50
20
00
F8
F8
30
60
F8
F8
ENDCHAR
STARTCHAR uni0218
ENCODING 536
SWIDTH 500 0
DWIDTH 6 0
BBX 5 11 0 -3
BITMAP
78
F8
C0
70
78
08
F8
78
00
30
20
ENDCHAR
STARTCHAR uni0219
ENCODING 537
SWIDTH 470 0
DWIDTH 6 0
BBX 5 9 0 -3
BITMAP
78
D8
70
18
D8
78
00
30
20
ENDCHAR
STARTCHAR uni021A
ENCODING 538
SWIDTH 441 0
DWIDTH 5 0
BBX 5 11 0 -3
BITMAP
F8
20
20
20
20
20
20
20
00
20
20
ENDCHAR
STARTCHAR uni021B
ENCODING 539
SWIDTH 352 0
DWIDTH 4 0
BBX 4 11 0 -3
BITMAP
20
40
F0
40
40
40
60
30
00
20
20
ENDCHAR
STARTCHAR uni0237
ENCODING 567
SWIDTH 235 0
DWIDTH 3 0
BBX 2 7 0 -2
BITMAP
40
40
40
40
40
C0
C0
ENDCHAR
STARTCHAR circumflex
ENCODING 710
SWIDTH 235 0
DWIDTH 3 0
BBX 2 2 0 7
BITMAP
40
C0
ENDCHAR
STARTCHAR caron
ENCODING 711
SWIDTH 235 0
DWIDTH 3 0
BBX 2 2 0 7
BITMAP
C0
40
ENDCHAR
STARTCHAR breve
ENCODING 728
SWIDTH 235 0
DWIDTH 3 0
BBX 2 1 0 7
BITMAP
C0
ENDCHAR
STARTCHAR dotaccent
ENCODING 729
SWIDTH 176 0
DWIDTH 2 0
BBX 2 1 0 7
BITMAP
C0
ENDCHAR
STARTCHAR ring
ENCODING 730
SWIDTH 235 0
DWIDTH 3 0
BBX 2 2 0 7
BITMAP
C0
40
ENDCHAR
STARTCHAR ogonek
ENCODING 731
SWIDTH 235 0
DWIDTH 3 0
BBX 2 3 0 -2
BITMAP
40
80
40
ENDCHAR
STARTCHAR tilde
ENCODING 732
SWIDTH 294 0
DWIDTH 4 0
BBX 3 1 0 7
BITMAP
E0
ENDCHAR
STARTCHAR hungarumlaut
ENCODING 733
SWIDTH 411 0
DWIDTH 5 0
BBX 5 2 0 7
BITMAP
58
F0
ENDCHAR
STARTCHAR gravecomb
ENCODING 768
SWIDTH 0 0
DWIDTH 0 0
BBX 2 2 -1 7
BITMAP
80
40
ENDCHAR
STARTCHAR acutecomb
ENCODING 769
SWIDTH 0 0
DWIDTH 0 0
BBX 2 2 -1 7
BITMAP
40
80
ENDCHAR
STARTCHAR uni0302
ENCODING 770
SWIDTH 0 0
DWIDTH 0 0
BBX 2 2 -1 7
BITMAP
80
C0
ENDCHAR
STARTCHAR tildecomb
ENCODING 771
SWIDTH 0 0
DWIDTH 0 0
BBX 2 1 -1 7
BITMAP
C0
ENDCHAR
STARTCHAR uni0304
ENCODING 772
SWIDTH 0 0
DWIDTH 0 0
BBX 2 1 -1 7
BITMAP
C0
ENDCHAR
STARTCHAR uni0306
ENCODING 774
SWIDTH 0 0
DWIDTH 0 0
BBX 2 1 -1 7
BITMAP
C0
ENDCHAR
STARTCHAR uni0307
ENCODING 775
SWIDTH 0 0
DWIDTH 0 0
BBX 2 1 -1 7
BITMAP
C0
ENDCHAR
STARTCHAR uni0308
ENCODING 776
SWIDTH 0 0
DWIDTH 0 0
BBX 4 1 -2 7
BITMAP
F0
ENDCHAR
STARTCHAR uni030A
ENCODING 778
SWIDTH 0 0
DWIDTH 0 0
BBX 2 2 -1 7
BITMAP
C0
C0
ENDCHAR
STARTCHAR uni030B
ENCODING 779
SWIDTH 0 0
DWIDTH 0 0
BBX 4 2 -2 7
BITMAP
50
A0
ENDCHAR
STARTCHAR uni030C
ENCODING 780
SWIDTH 0 0
DWIDTH 0 0
BBX 2 2 -1 7
BITMAP
C0
C0
ENDCHAR
STARTCHAR uni0312
ENCODING 786
SWIDTH 0 0
DWIDTH 0 0
BBX 1 2 0 7
BITMAP
80
80
ENDCHAR
STARTCHAR uni0326
ENCODING 806
SWIDTH 0 0
DWIDTH 0 0
BBX 1 2 0 -3
BITMAP
80
80
ENDCHAR
STARTCHAR uni0327
ENCODING 807
SWIDTH 0 0
DWIDTH 0 0
BBX 2 2 -1 -2
BITMAP
C0
80
ENDCHAR
STARTCHAR uni0328
ENCODING 808
SWIDTH 0 0
DWIDTH 0 0
BBX 2 3 -1 -2
BITMAP
40
80
40
ENDCHAR
STARTCHAR Wgrave
ENCODING 7808
SWIDTH 617 0
DWIDTH 7 0
BBX 7 10 0 0
BITMAP
10
08
D6
D6
D6
D6
D6
D6
7C
6C
ENDCHAR
STARTCHAR wgrave
ENCODING 7809
SWIDTH 617 0
DWIDTH 7 0
BBX 7 9 0 0
BITMAP
30
18
00
D6
D6
D6
D6
7C
6C
ENDCHAR
STARTCHAR Wacute
ENCODING 7810
SWIDTH 617 0
DWIDTH 7 0
BBX 7 10 0 0
BITMAP
08
10
D6
D6
D6
D6
D6
D6
7C
6C
ENDCHAR
STARTCHAR wacute
ENCODING 7811
SWIDTH 617 0
DWIDTH 7 0
BBX 7 9 0 0
BITMAP
18
30
00
D6
D6
D6
D6
7C
6C
ENDCHAR
STARTCHAR Wdieresis
ENCODING 7812
SWIDTH 617 0
DWIDTH 7 0
BBX 7 10 0 0
BITMAP
28
00
D6
D6
D6
D6
D6
D6
7C
6C
ENDCHAR
STARTCHAR wdieresis
ENCODING 7813
SWIDTH 617 0
DWIDTH 7 0
BBX 7 9 0 0
BITMAP
28
28
00
D6
D6
D6
D6
7C
6C
ENDCHAR
STARTCHAR uni1E9E
ENCODING 7838
SWIDTH 500 0
DWIDTH 6 0
BBX 5 8 0 0
BITMAP
F8
C8
D0
F0
C8
C8
E8
F8
ENDCHAR
STARTCHAR Ygrave
ENCODING 7922
SWIDTH 500 0
DWIDTH 6 0
BBX 5 10 0 0
BITMAP
20
10
C8
C8
C8
C8
78
30
30
30
ENDCHAR
STARTCHAR ygrave
ENCODING 7923
SWIDTH 470 0
DWIDTH 6 0
BBX 5 11 0 -2
BITMAP
20
30
00
C8
C8
C8
D8
70
20
40
C0
ENDCHAR
STARTCHAR uni200A
ENCODING 8202
SWIDTH 29 0
DWIDTH 0 0
BBX 1 1 0 0
BITMAP
00
ENDCHAR
STARTCHAR endash
ENCODING 8211
SWIDTH 470 0
DWIDTH 6 0
BBX 5 1 0 4
BITMAP
F8
ENDCHAR
STARTCHAR emdash
ENCODING 8212
SWIDTH 617 0
DWIDTH 7 0
BBX 7 1 0 4
BITMAP
FE
ENDCHAR
STARTCHAR quoteleft
ENCODING 8216
SWIDTH 205 0
DWIDTH 2 0
BBX 2 4 0 4
BITMAP
40
40
C0
C0
ENDCHAR
STARTCHAR quoteright
ENCODING 8217
SWIDTH 205 0
DWIDTH 2 0
BBX 2 3 0 5
BITMAP
C0
40
80
ENDCHAR
STARTCHAR quotesinglbase
ENCODING 8218
SWIDTH 205 0
DWIDTH 2 0
BBX 2 2 0 -1
BITMAP
C0
80
ENDCHAR
STARTCHAR quotedblleft
ENCODING 8220
SWIDTH 382 0
DWIDTH 5 0
BBX 4 4 0 4
BITMAP
50
50
F0
F0
ENDCHAR
STARTCHAR quotedblright
ENCODING 8221
SWIDTH 382 0
DWIDTH 5 0
BBX 4 3 0 5
BITMAP
F0
50
A0
ENDCHAR
STARTCHAR quotedblbase
ENCODING 8222
SWIDTH 382 0
DWIDTH 5 0
BBX 4 2 0 -1
BITMAP
F0
A0
ENDCHAR
STARTCHAR bullet
ENCODING 8226
SWIDTH 352 0
DWIDTH 4 0
BBX 4 4 0 2
BITMAP
60
F0
F0
60
ENDCHAR
STARTCHAR ellipsis
ENCODING 8230
SWIDTH 617 0
DWIDTH 7 0
BBX 7 1 0 0
BITMAP
D6
ENDCHAR
STARTCHAR guilsinglleft
ENCODING 8249
SWIDTH 323 0
DWIDTH 4 0
BBX 3 4 0 2
BITMAP
20
40
C0
20
ENDCHAR
STARTCHAR guilsinglright
ENCODING 8250
SWIDTH 323 0
DWIDTH 4 0
BBX 3 4 0 2
BITMAP
80
40
20
C0
ENDCHAR
STARTCHAR Euro
ENCODING 8364
SWIDTH 529 0
DWIDTH 6 0
BBX 6 8 0 0
BITMAP
38
7C
4C
F0
F0
4C
7C
78
ENDCHAR
STARTCHAR trademark
ENCODING 8482
SWIDTH 1088 0
DWIDTH 13 0
BBX 12 7 0 0
BITMAP
FA10
2330
23F0
22D0
2210
2210
2210
ENDCHAR
STARTCHAR minus
ENCODING 8722
SWIDTH 470 0
DWIDTH 6 0
BBX 5 1 0 3
BITMAP
F8
ENDCHAR
STARTCHAR uni2698
ENCODING 9880
SWIDTH 441 0
DWIDTH 5 0
BBX 5 7 0 0
BITMAP
20
50
20
00
A8
F8
70
ENDCHAR
STARTCHAR .notdef
ENCODING -1
SWIDTH 411 0
DWIDTH 5 0
BBX 4 7 0 0
BITMAP
F0
90
90
90
90
90
F0
ENDCHAR
STARTCHAR uni004A0301
ENCODING -1
SWIDTH 441 0
DWIDTH 5 0
BBX 5 10 0 0
BITMAP
08
10
18
18
18
18
18
18
F8
70
ENDCHAR
STARTCHAR i.loclTRK
ENCODING -1
SWIDTH 205 0
DWIDTH 2 0
BBX 2 8 0 0
BITMAP
C0
00
C0
C0
C0
C0
C0
C0
ENDCHAR
STARTCHAR uni006A0301
ENCODING -1
SWIDTH 235 0
DWIDTH 3 0
BBX 2 11 0 -2
BITMAP
40
40
00
00
40
40
40
40
40
C0
C0
ENDCHAR
STARTCHAR zero.tf
ENCODING -1
SWIDTH 441 0
DWIDTH 5 0
BBX 5 8 0 0
BITMAP
70
F8
D8
D8
D8
D8
F8
70
ENDCHAR
STARTCHAR one.tf
ENCODING -1
SWIDTH 441 0
DWIDTH 5 0
BBX 5 8 0 0
BITMAP
60
20
20
20
20
20
20
F8
ENDCHAR
STARTCHAR two.tf
ENCODING -1
SWIDTH 441 0
DWIDTH 5 0
BBX 5 8 0 0
BITMAP
70
F8
18
10
30
60
F8
F8
ENDCHAR
STARTCHAR three.tf
ENCODING -1
SWIDTH 441 0
DWIDTH 5 0
BBX 5 8 0 0
BITMAP
70
F8
18
30
10
18
F8
70
ENDCHAR
STARTCHAR four.tf
ENCODING -1
SWIDTH 441 0
DWIDTH 5 0
BBX 5 8 0 0
BITMAP
18
38
78
D8
D8
F8
F8
18
ENDCHAR
STARTCHAR five.tf
ENCODING -1
SWIDTH 441 0
DWIDTH 5 0
BBX 5 8 0 0
BITMAP
F8
F8
C0
F0
F8
18
F8
70
ENDCHAR
STARTCHAR six.tf
ENCODING -1
SWIDTH 441 0
DWIDTH 5 0
BBX 5 8 0 0
BITMAP
70
F8
C0
F0
F8
D8
F8
70
ENDCHAR
STARTCHAR seven.tf
ENCODING -1
SWIDTH 441 0
DWIDTH 5 0
BBX 5 8 0 0
BITMAP
F8
18
18
18
30
30
20
20
ENDCHAR
STARTCHAR eight.tf
ENCODING -1
SWIDTH 441 0
DWIDTH 5 0
BBX 5 8 0 0
BITMAP
70
F8
D8
70
50
D8
F8
70
ENDCHAR
STARTCHAR nine.tf
ENCODING -1
SWIDTH 441 0
DWIDTH 5 0
BBX 5 8 0 0
BITMAP
70
F8
D8
F8
78
18
F8
70
ENDCHAR
STARTCHAR periodcentered.loclCAT
ENCODING -1
SWIDTH 470 0
DWIDTH 6 0
BBX 2 1 2 4
BITMAP
C0
ENDCHAR
STARTCHAR periodcentered.loclCAT.case
ENCODING -1
SWIDTH 470 0
DWIDTH 6 0
BBX 2 1 2 4
BITMAP
C0
ENDCHAR
STARTCHAR uni0308.case
ENCODING -1
SWIDTH 0 0
DWIDTH 0 0
BBX 4 1 -2 9
BITMAP
F0
ENDCHAR
STARTCHAR uni0307.case
ENCODING -1
SWIDTH 0 0
DWIDTH 0 0
BBX 2 1 -1 9
BITMAP
C0
ENDCHAR
STARTCHAR gravecomb.case
ENCODING -1
SWIDTH 0 0
DWIDTH 0 0
BBX 2 2 -1 8
BITMAP
80
40
ENDCHAR
STARTCHAR acutecomb.case
ENCODING -1
SWIDTH 0 0
DWIDTH 0 0
BBX 2 2 -1 8
BITMAP
40
80
ENDCHAR
STARTCHAR uni030B.case
ENCODING -1
SWIDTH 0 0
DWIDTH 0 0
BBX 4 2 -2 8
BITMAP
50
A0
ENDCHAR
STARTCHAR uni0302.case
ENCODING -1
SWIDTH 0 0
DWIDTH 0 0
BBX 2 2 -1 8
BITMAP
80
C0
ENDCHAR
STARTCHAR uni030C.case
ENCODING -1
SWIDTH 0 0
DWIDTH 0 0
BBX 2 2 -1 9
BITMAP
C0
C0
ENDCHAR
STARTCHAR uni0306.case
ENCODING -1
SWIDTH 0 0
DWIDTH 0 0
BBX 2 1 -1 8
BITMAP
C0
ENDCHAR
STARTCHAR uni030A.case
ENCODING -1
SWIDTH 0 0
DWIDTH 0 0
BBX 2 2 -1 8
BITMAP
C0
C0
ENDCHAR
STARTCHAR tildecomb.case
ENCODING -1
SWIDTH 0 0
DWIDTH 0 0
BBX 2 1 -1 9
BITMAP
C0
ENDCHAR
STARTCHAR uni0304.case
ENCODING -1
SWIDTH 0 0
DWIDTH 0 0
BBX 2 1 -1 9
BITMAP
C0
ENDCHAR
ENDFONT
